<svg width="36" height="35" viewBox="0 0 36 35" fill="none" xmlns="http://www.w3.org/2000/svg">
<path d="M17.9998 2.91666C16.0847 2.91666 14.1884 3.29387 12.419 4.02675C10.6497 4.75963 9.04205 5.83383 7.68786 7.18802C4.95296 9.92292 3.4165 13.6322 3.4165 17.5C3.4165 23.9458 7.60192 29.4146 13.3915 31.3542C14.1207 31.4708 14.354 31.0187 14.354 30.625V28.1604C10.3144 29.0354 9.454 26.2062 9.454 26.2062C8.78317 24.5146 7.83525 24.0625 7.83525 24.0625C6.50817 23.1583 7.93734 23.1875 7.93734 23.1875C9.39567 23.2896 10.1686 24.6896 10.1686 24.6896C11.4373 26.9062 13.5811 26.25 14.4123 25.9C14.5436 24.9521 14.9228 24.3104 15.3311 23.9458C12.0936 23.5812 8.69567 22.3271 8.69567 16.7708C8.69567 15.1521 9.24984 13.8542 10.1978 12.8187C10.0519 12.4542 9.5415 10.9375 10.3436 8.96874C10.3436 8.96874 11.5686 8.57499 14.354 10.4562C15.5061 10.1354 16.7603 9.97499 17.9998 9.97499C19.2394 9.97499 20.4936 10.1354 21.6457 10.4562C24.4311 8.57499 25.6561 8.96874 25.6561 8.96874C26.4582 10.9375 25.9478 12.4542 25.8019 12.8187C26.7498 13.8542 27.304 15.1521 27.304 16.7708C27.304 22.3417 23.8915 23.5667 20.6394 23.9312C21.1644 24.3833 21.6457 25.2729 21.6457 26.6292V30.625C21.6457 31.0187 21.879 31.4854 22.6228 31.3542C28.4123 29.4 32.5832 23.9458 32.5832 17.5C32.5832 15.5849 32.206 13.6885 31.4731 11.9192C30.7402 10.1499 29.666 8.5422 28.3118 7.18802C26.9576 5.83383 25.35 4.75963 23.5806 4.02675C21.8113 3.29387 19.9149 2.91666 17.9998 2.91666Z" fill="#111111"/>
</svg>
