<svg width="36" height="35" viewBox="0 0 36 35" fill="none" xmlns="http://www.w3.org/2000/svg">
<path d="M17.5077 7.16406L20.2421 4.42968C20.9531 3.7187 21.7971 3.15471 22.7261 2.76993C23.655 2.38515 24.6507 2.1871 25.6562 2.1871C26.6616 2.1871 27.6573 2.38515 28.5862 2.76993C29.5152 3.15471 30.3592 3.7187 31.0702 4.42968C31.7812 5.14067 32.3452 5.98473 32.73 6.91367C33.1147 7.84262 33.3128 8.83826 33.3128 9.84374C33.3128 10.8492 33.1147 11.8449 32.73 12.7738C32.3452 13.7028 31.7812 14.5468 31.0702 15.2578L25.6015 20.7266C24.8905 21.4376 24.0465 22.0016 23.1175 22.3864C22.1886 22.7712 21.1929 22.9693 20.1874 22.9693C19.1819 22.9693 18.1863 22.7712 17.2573 22.3864C16.3284 22.0016 15.4843 21.4376 14.7733 20.7266C14.4837 20.4154 14.326 20.004 14.3333 19.5789C14.3407 19.1539 14.5125 18.7482 14.8127 18.4472C15.1137 18.147 15.5194 17.9751 15.9445 17.9678C16.3695 17.9604 16.7809 18.1182 17.0921 18.4078C17.4981 18.8151 17.9805 19.1383 18.5117 19.3588C19.0428 19.5793 19.6123 19.6928 20.1874 19.6928C20.7625 19.6928 21.332 19.5793 21.8631 19.3588C22.3943 19.1383 22.8767 18.8151 23.2827 18.4078L28.7515 12.9391C29.5325 12.1101 29.9598 11.0095 29.9428 9.87075C29.9259 8.73197 29.4659 7.6446 28.6606 6.83927C27.8553 6.03395 26.7679 5.57403 25.6292 5.55707C24.4904 5.54011 23.3898 5.96744 22.5608 6.74843L19.8265 9.48281C19.5153 9.77245 19.1039 9.93018 18.6788 9.92283C18.2538 9.91549 17.8481 9.74365 17.5471 9.44343C17.2469 9.14242 17.075 8.73675 17.0677 8.31169C17.0603 7.88662 17.2181 7.47525 17.5077 7.16406ZM7.24834 28.2516C7.65437 28.6588 8.13678 28.982 8.66794 29.2025C9.1991 29.423 9.76855 29.5365 10.3437 29.5365C10.9188 29.5365 11.4882 29.423 12.0194 29.2025C12.5505 28.982 13.0329 28.6588 13.439 28.2516L16.1733 25.5172C16.4845 25.2275 16.8959 25.0698 17.321 25.0772C17.746 25.0845 18.1517 25.2563 18.4527 25.5566C18.7529 25.8576 18.9248 26.2632 18.9321 26.6883C18.9395 27.1134 18.7817 27.5247 18.4921 27.8359L15.7577 30.5703C15.0467 31.2813 14.2027 31.8453 13.2737 32.2301C12.3448 32.6148 11.3491 32.8129 10.3437 32.8129C8.31298 32.8129 6.36549 32.0062 4.92959 30.5703C3.49369 29.1344 2.68701 27.1869 2.68701 25.1562C2.68701 23.1256 3.49369 21.1781 4.92959 19.7422L10.3983 14.2734C11.1093 13.5624 11.9534 12.9984 12.8823 12.6136C13.8113 12.2288 14.8069 12.0307 15.8124 12.0307C16.8179 12.0307 17.8136 12.2288 18.7425 12.6136C19.6715 12.9984 20.5155 13.5624 21.2265 14.2734C21.5161 14.5846 21.6738 14.996 21.6665 15.4211C21.6591 15.8461 21.4873 16.2518 21.1871 16.5528C20.8861 16.853 20.4804 17.0249 20.0553 17.0322C19.6303 17.0396 19.2189 16.8818 18.9077 16.5922C18.5017 16.1849 18.0193 15.8617 17.4881 15.6412C16.957 15.4207 16.3875 15.3072 15.8124 15.3072C15.2373 15.3072 14.6678 15.4207 14.1367 15.6412C13.6055 15.8617 13.1231 16.1849 12.7171 16.5922L7.24834 22.0609C6.84105 22.467 6.51789 22.9494 6.29739 23.4805C6.07689 24.0117 5.96339 24.5811 5.96339 25.1562C5.96339 25.7313 6.07689 26.3008 6.29739 26.832C6.51789 27.3631 6.84105 27.8455 7.24834 28.2516Z" fill="#111111"/>
</svg>
